<mxfile host="app.diagrams.net" modified="2023-11-09T06:17:17.828Z" agent="Mozilla/5.0 (Windows NT 10.0; Win64; x64) AppleWebKit/537.36 (KHTML, like Gecko) Chrome/116.0.0.0 Safari/537.36 OPR/102.0.0.0" version="22.1.0" etag="S-VeeSwYdz1FsixzPtB1" type="github">
  <diagram name="Page-1" id="NvYz995jmP59X2LVXElU">
    <mxGraphModel>
      <root>
        <mxCell id="0" />
        <mxCell id="1" parent="0" />
      </root>
    </mxGraphModel>
  </diagram>
</mxfile>
